<svg width="1em" height="1em" fill="none" xmlns="http://www.w3.org/2000/svg"><path d="M4.19 15.973c0 .221.065.438.188.622l.6.903a1.126 1.126 0 0 0 .937.502h2.17a1.126 1.126 0 0 0 .936-.502l.601-.903c.123-.184.188-.4.189-.622l.001-1.348H4.188l.002 1.348ZM.812 6.188c0 1.56.579 2.983 1.532 4.07.58.663 1.49 2.047 1.835 3.215l.004.027h5.634l.004-.027c.346-1.168 1.254-2.552 1.835-3.215a6.153 6.153 0 0 0 1.531-4.07A6.187 6.187 0 0 0 6.981 0C3.394.01.813 2.917.813 6.188ZM7 3.375a2.816 2.816 0 0 0-2.813 2.813.562.562 0 1 1-1.125 0A3.942 3.942 0 0 1 7 2.25a.562.562 0 1 1 0 1.125Z" fill="currentColor"/></svg>