<svg width="1em" height="1em" fill="none" xmlns="http://www.w3.org/2000/svg"><path d="M19 3.504H5c-.55 0-1 .45-1 1v3c0 .55.45 1 1 1h14c.55 0 1-.45 1-1v-3c0-.55-.45-1-1-1ZM19 9.504H5c-.55 0-1 .45-1 1v3c0 .55.45 1 1 1h14c.55 0 1-.45 1-1v-3c0-.55-.45-1-1-1ZM19 15.504H5c-.55 0-1 .45-1 1v3c0 .55.45 1 1 1h14c.55 0 1-.45 1-1v-3c0-.55-.45-1-1-1Z" fill="currentColor"/><path d="M22.599 19.046c.05-.2.05-.4.05-.55 0-.15 0-.4-.05-.55l1.15-.85c.1-.1.15-.25.1-.35l-1.15-1.95c-.05-.1-.2-.15-.35-.1l-1.3.6c-.3-.25-.65-.45-1-.6l-.15-1.45c0-.15-.15-.25-.25-.25h-2.25c-.15 0-.25.1-.25.25l-.15 1.45c-.35.15-.7.35-1 .6l-1.3-.6c-.15-.05-.3 0-.35.1l-1.15 1.95c-.05.1-.05.3.1.35l1.15.85c-.05.2-.05.4-.05.55 0 .15 0 .4.05.55l-1.15.85c-.1.1-.15.25-.1.35l1.15 1.95c.05.1.2.15.35.1l1.3-.6c.3.25.65.45 1 .6l.15 1.45c0 .15.15.25.25.25h2.25c.15 0 .25-.1.25-.25l.15-1.45c.35-.15.7-.35 1-.6l1.3.6c.15.05.3 0 .35-.1l1.15-1.95c.05-.1.05-.3-.1-.35l-1.15-.85Zm-4.1 2.05c-1.45 0-2.6-1.15-2.6-2.6 0-1.45 1.15-2.6 2.6-2.6 1.45 0 2.6 1.15 2.6 2.6 0 1.45-1.15 2.6-2.6 2.6Z" fill="currentColor"/><path d="M18.5 15.504c-1.65 0-3 1.35-3 3s1.35 3 3 3 3-1.35 3-3-1.35-3-3-3Zm0 4.5c-.85 0-1.5-.65-1.5-1.5s.65-1.5 1.5-1.5 1.5.65 1.5 1.5-.65 1.5-1.5 1.5Z" fill="#9CA3AF"/></svg>