<svg width="1em" height="1em" fill="none" xmlns="http://www.w3.org/2000/svg"><path d="M16.313.25H1.688C.755.25 0 1.006 0 1.938v10.124c0 .933.756 1.688 1.688 1.688h14.624c.932 0 1.688-.755 1.688-1.688V1.938C18 1.006 17.244.25 16.312.25Zm-.211 11.813H1.898a.21.21 0 0 1-.21-.211V2.148a.21.21 0 0 1 .21-.21h14.204a.21.21 0 0 1 .21.21v9.704a.21.21 0 0 1-.21.21ZM4.5 3.342a1.406 1.406 0 1 0 0 2.813 1.406 1.406 0 0 0 0-2.812Zm-1.125 7.032h11.25V7.562l-3.077-3.076a.422.422 0 0 0-.596 0L6.75 8.688l-1.39-1.39a.422.422 0 0 0-.596 0l-1.389 1.39v1.687Z" fill="currentColor"/></svg>