<svg width="18" height="18" viewBox="0 0 18 18" fill="none" xmlns="http://www.w3.org/2000/svg">
<path d="M16.3125 2.25H1.6875C0.755508 2.25 0 3.00551 0 3.9375V14.0625C0 14.9945 0.755508 15.75 1.6875 15.75H16.3125C17.2445 15.75 18 14.9945 18 14.0625V3.9375C18 3.00551 17.2445 2.25 16.3125 2.25ZM16.1016 14.0625H1.89844C1.84249 14.0625 1.78884 14.0403 1.74928 14.0007C1.70972 13.9612 1.6875 13.9075 1.6875 13.8516V4.14844C1.6875 4.09249 1.70972 4.03884 1.74928 3.99928C1.78884 3.95972 1.84249 3.9375 1.89844 3.9375H16.1016C16.1575 3.9375 16.2112 3.95972 16.2507 3.99928C16.2903 4.03884 16.3125 4.09249 16.3125 4.14844V13.8516C16.3125 13.9075 16.2903 13.9612 16.2507 14.0007C16.2112 14.0403 16.1575 14.0625 16.1016 14.0625V14.0625ZM4.5 5.34375C3.72336 5.34375 3.09375 5.97336 3.09375 6.75C3.09375 7.52664 3.72336 8.15625 4.5 8.15625C5.27664 8.15625 5.90625 7.52664 5.90625 6.75C5.90625 5.97336 5.27664 5.34375 4.5 5.34375ZM3.375 12.375H14.625V9.5625L11.5483 6.4858C11.3836 6.32106 11.1164 6.32106 10.9517 6.4858L6.75 10.6875L5.3608 9.2983C5.19606 9.13356 4.92894 9.13356 4.76416 9.2983L3.375 10.6875V12.375Z" fill="black"/>
</svg>
