<svg width="1em" height="1em" fill="none" xmlns="http://www.w3.org/2000/svg"><path d="M15.536 2.805c-.756-.756-2.072-.756-2.828 0l-9.9 9.9a2.001 2.001 0 0 0 0 2.827l5.658 5.657c.378.378.88.586 1.414.586.534 0 1.036-.208 1.414-.586l9.899-9.899c.378-.378.586-.88.586-1.414 0-.534-.208-1.036-.586-1.414l-5.657-5.657ZM9.88 19.775v1-1l-5.657-5.657 9.899-9.899 5.657 5.657-9.9 9.9Z" fill="currentColor"/><path d="M9 15.998a1 1 0 1 0 0-2 1 1 0 0 0 0 2ZM15.708 21.705l-1.414-1.414 6-6 1.414 1.415-6 6ZM8.294 2.291l1.414 1.414-6 6L2.294 8.29l6-5.999Z" fill="currentColor"/></svg>