<svg width="18" height="18" viewBox="0 0 18 18" fill="none" xmlns="http://www.w3.org/2000/svg">
<g clip-path="url(#clip0_90_1650)">
<path d="M6.18961 15.9733C6.18996 16.1944 6.25535 16.411 6.37805 16.5952L6.97887 17.4984C7.0815 17.6527 7.22072 17.7794 7.38412 17.867C7.54752 17.9545 7.73003 18.0004 7.91543 18.0004H10.0849C10.2703 18.0004 10.4528 17.9545 10.6162 17.867C10.7796 17.7794 10.9188 17.6527 11.0215 17.4984L11.6223 16.5952C11.7449 16.4109 11.8105 16.1946 11.8107 15.9733L11.8121 14.625H6.18785L6.18961 15.9733ZM2.8125 6.18753C2.8125 7.74741 3.39082 9.17054 4.34391 10.2579C4.92469 10.9206 5.83312 12.3051 6.17941 13.473C6.18082 13.4821 6.18187 13.4912 6.18328 13.5004H11.8167C11.8181 13.4912 11.8192 13.4825 11.8206 13.473C12.1669 12.3051 13.0753 10.9206 13.6561 10.2579C14.6092 9.17054 15.1875 7.74741 15.1875 6.18753C15.1875 2.76366 12.407 -0.0105169 8.98066 2.99734e-05C5.39437 0.0109284 2.8125 2.91694 2.8125 6.18753ZM9 3.37503C7.44926 3.37503 6.1875 4.63679 6.1875 6.18753C6.1875 6.49831 5.93578 6.75003 5.625 6.75003C5.31422 6.75003 5.0625 6.49831 5.0625 6.18753C5.0625 4.01628 6.82875 2.25003 9 2.25003C9.31078 2.25003 9.5625 2.50175 9.5625 2.81253C9.5625 3.12331 9.31078 3.37503 9 3.37503Z" fill="black"/>
</g>
<defs>
<clipPath id="clip0_90_1650">
<rect width="18" height="18" fill="white"/>
</clipPath>
</defs>
</svg>
