<svg width="1em" height="1em" fill="none" xmlns="http://www.w3.org/2000/svg"><path d="M1.664.164A.562.562 0 0 1 2.063 0h7.874a.562.562 0 0 1 .563.563c0 .764-.385 1.32-.727 1.663-.141.141-.281.252-.398.336v4.985l.088.054c.228.142.535.353.845.624.597.522 1.317 1.368 1.317 2.463a.562.562 0 0 1-.563.562h-4.5v5.063C6.563 16.622 6.31 18 6 18c-.31 0-.563-1.377-.563-1.688V11.25h-4.5a.562.562 0 0 1-.562-.563c0-1.094.72-1.94 1.316-2.462a6.66 6.66 0 0 1 .934-.678V2.561a3.117 3.117 0 0 1-.398-.336c-.342-.343-.727-.9-.727-1.663a.563.563 0 0 1 .164-.399Z" fill="currentColor"/></svg>